<svg width="487" height="503" viewBox="0 0 487 503" fill="none" xmlns="http://www.w3.org/2000/svg">
<path d="M140.206 22C139.206 38.6667 149.006 73.4 196.206 79H485.206V227C486.206 268.333 461.206 351.4 353.206 353C245.206 354.6 160.873 353.667 132.206 353C91.5397 352.667 11.4064 378.2 16.2064 483" stroke="#4ADE80" stroke-width="2"/>
<circle cx="16" cy="487" r="16" fill="#04C48B" fill-opacity="0.4"/>
<circle cx="16" cy="487" r="7" fill="white"/>
<circle cx="141" cy="16" r="16" fill="#04C48B" fill-opacity="0.4"/>
<circle cx="141" cy="16" r="7" fill="white"/>
<path d="M216.688 353.25L229.883 359.812V364.406L213.852 355.523V352.828L216.688 353.25ZM229.883 347.859L216.711 354.516L213.852 354.844V352.125L229.883 343.266V347.859ZM249.617 334.875L237.664 371.93H234.172L246.148 334.875H249.617ZM268.109 354.188L254.422 347.695V343.219L271.32 352.078V354.82L268.109 354.188ZM254.422 359.906L268.133 353.273L271.32 352.781V355.5L254.422 364.383V359.906Z" fill="white"/>
</svg>
