<svg width="646" height="614" viewBox="0 0 646 614" fill="none" xmlns="http://www.w3.org/2000/svg">
<path d="M67 21H1V283C1.66667 308.333 15.8 361 67 369H320C417.667 364.333 615.4 377.4 625 467V593" stroke="#4ADE80" stroke-width="2"/>
<circle cx="625" cy="593" r="21" fill="#5BD086" fill-opacity="0.26"/>
<circle cx="625" cy="593" r="7" fill="white"/>
<path d="M278.25 368L295.844 376.75V382.875L274.469 371.031V367.438L278.25 368ZM295.844 360.812L278.281 369.688L274.469 370.125V366.5L295.844 354.688V360.812ZM322.156 343.5L306.219 392.906H301.562L317.531 343.5H322.156ZM346.812 369.25L328.562 360.594V354.625L351.094 366.438V370.094L346.812 369.25ZM328.562 376.875L346.844 368.031L351.094 367.375V371L328.562 382.844V376.875Z" fill="white"/>
<circle cx="72" cy="21" r="21" fill="#5BD086" fill-opacity="0.26"/>
<circle cx="72" cy="21" r="7" fill="white"/>
</svg>
